<?xml version="1.0" encoding="UTF-8"?>
<svg xmlns="http://www.w3.org/2000/svg" viewBox="0 0 48 48" width="48" height="48">
<path d="M12.65 0.06C13.42 0.06 14.19 0.06 14.96 0.06C15.06 1.49 14.46 3.15 14.66 4.48C15.05 7.1 18.47 11.72 13.5 12.92C11.2 11.54 12.62 10.47 12.96 8.5C10.37 3.96 11.15 4.53 12.65 0.06ZM22.96 0.06C23.65 0.06 24.34 0.06 25.03 0.06C25.28 0.54 25.52 1.02 25.77 1.5C25.48 2.5 24.79 3.42 24.95 4.5C25.4 7.59 28.76 10.59 24.17 12.84C23.52 12.4 22.88 11.95 22.23 11.5C23.28 5.9 20.9 7 21.2 3.83C21.34 2.34 22.53 1.36 22.96 0.06ZM33.03 0.06C33.8 0.06 34.57 0.06 35.34 0.06C35.91 1.93 34.78 2.84 35.11 4.45C35.78 7.63 39.3 10.04 34.5 12.92C31.48 12.25 33.68 10.3 33.49 8.51C33.34 7.1 31.68 6.09 31.57 4.5C31.45 2.72 32.8 1.59 33.03 0.06ZM19.22 19.13C27.7 18.02 37.47 19.9 43.2 26.63C45.14 28.91 47.16 32.65 45.91 35.76C45.22 37.48 43.1 37.11 42.15 38.31C40.37 40.56 40.75 44.15 37.9 45.72C35.18 47.22 29.87 46.19 26.83 46.19C23.15 46.19 13.02 47.32 10.1 45.72C7.47 44.27 7.32 40.87 5.96 38.54C5.1 37.07 2.6 37.51 2 35.49C-0.64 26.52 12.35 20.02 19.22 19.13ZM42.58 34.04C42.95 29.81 38.65 26.6 35.27 24.87C27.97 21.16 18.21 21.41 11.23 25.71C8.35 27.49 5.1 30.39 5.42 34.04C17.81 34.04 30.19 34.04 42.58 34.04ZM20.5 25.04C22.38 27.04 19.98 31.49 17.5 31.71C17.11 31.31 16.72 30.9 16.33 30.5C16.41 28.17 17.94 24.9 20.5 25.04ZM27.5 25.04C30.05 24.9 31.62 28.18 31.65 30.5C31.26 30.9 30.88 31.29 30.5 31.69C28.01 31.51 25.63 27.03 27.5 25.04ZM38.17 37.97C28.72 37.97 19.28 37.97 9.83 37.97C9.98 39.49 10.69 42.24 12.37 42.79C14.08 43.36 33.92 43.36 35.63 42.79C37.31 42.24 38.02 39.49 38.17 37.97Z" fill="#000000" fill-rule="evenodd" stroke="#090909" stroke-width="0.25" stroke-linejoin="round"/>
</svg>